<svg xmlns="http://www.w3.org/2000/svg" viewBox="0 0 850 480" width="100%" height="100%" fill="none">
  <defs>
    <linearGradient id="bgGrad" x1="0%" y1="0%" x2="100%" y2="100%">
      <stop offset="0%" stop-color="#140B18" />
      <stop offset="50%" stop-color="#190E1F" />
      <stop offset="100%" stop-color="#0E0712" />
    </linearGradient>

    <linearGradient id="cardGrad1" x1="0%" y1="0%" x2="100%" y2="100%">
      <stop offset="0%" stop-color="#241228" stop-opacity="0.85" />
      <stop offset="100%" stop-color="#180A1B" stop-opacity="0.9" />
    </linearGradient>

    <linearGradient id="magGrad" x1="0%" y1="0%" x2="100%" y2="0%">
      <stop offset="0%" stop-color="#FF2A85" />
      <stop offset="100%" stop-color="#E879F9" />
    </linearGradient>

    <filter id="doodleGlow" x="-10%" y="-10%" width="120%" height="120%">
      <feGaussianBlur stdDeviation="3" result="blur" />
      <feComposite in="SourceGraphic" in2="blur" operator="over" />
    </filter>

    <pattern id="dotGrid" x="0" y="0" width="20" height="20" patternUnits="userSpaceOnUse">
      <circle cx="2" cy="2" r="1" fill="#FF2A85" fill-opacity="0.08" />
    </pattern>
  </defs>

  <style>
    @import url('https://fonts.googleapis.com/css2?family=Caveat:wght@600;700&amp;family=JetBrains+Mono:wght@500;700&amp;display=swap');

    text {
      font-family: 'JetBrains Mono', monospace;
      user-select: none;
    }

    .handwritten {
      font-family: 'Caveat', cursive, sans-serif;
    }

    /* Sketchy doodle card borders */
    .doodle-card {
      fill: url(#cardGrad1);
      stroke: #FF2A85;
      stroke-width: 1.6;
      stroke-linejoin: round;
      stroke-linecap: round;
      transition: all 0.3s ease;
    }

    .badge-pill {
      fill: #220F26;
      stroke: #FF66B2;
      stroke-width: 1.2;
      stroke-dasharray: 240, 2;
      rx: 8px;
    }

    .badge-pill:hover {
      fill: #36143D;
      stroke: #FF2A85;
    }

    .doodle-accent {
      stroke: #FF66B2;
      stroke-linecap: round;
      stroke-linejoin: round;
    }

    .floating-sparkle {
      animation: floatDoodle 3s ease-in-out infinite alternate;
    }
    @keyframes floatDoodle {
      0% { transform: translateY(0px) rotate(0deg); opacity: 0.7; }
      100% { transform: translateY(-4px) rotate(8deg); opacity: 1; }
    }

    .pulse-glow {
      animation: pulseGlow 4s ease-in-out infinite alternate;
    }
    @keyframes pulseGlow {
      0% { opacity: 0.4; }
      100% { opacity: 0.85; }
    }
  </style>

  <!-- Canvas Background with Doodle Grid -->
  <rect width="850" height="480" rx="16" fill="url(#bgGrad)" stroke="#4A1236" stroke-width="1.5" />
  <rect width="850" height="480" rx="16" fill="url(#dotGrid)" />

  <!-- Doodled Corner Brackets / Tape -->
  <g stroke="#FF2A85" stroke-width="2" stroke-linecap="round" opacity="0.6">
    <path d="M 20 40 Q 20 20 40 20" />
    <path d="M 830 40 Q 830 20 810 20" />
    <path d="M 20 440 Q 20 460 40 460" />
    <path d="M 830 440 Q 830 460 810 460" />
    <!-- Tape strip top center -->
    <polygon points="400,10 450,10 445,26 395,26" fill="#FF2A85" fill-opacity="0.25" stroke="#FF66B2" stroke-width="1" />
  </g>

  <!-- Header Scribble -->
  <g transform="translate(425, 42)">
    <text text-anchor="middle" y="0" fill="#FF2A85" font-size="20" font-weight="700" letter-spacing="1">⚡ MY DOODLE TECH ARSENAL ⚡</text>
    <!-- Underline scribble -->
    <path d="M -150 10 Q -60 16 0 10 Q 70 5 150 11" stroke="#FF66B2" stroke-width="2" fill="none" stroke-linecap="round" />
    <!-- Cute doodle star -->
    <path d="M 165 6 L 168 11 L 174 11 L 169 14 L 171 19 L 165 16 L 160 19 L 162 14 L 157 11 L 163 11 Z" fill="#FF80BF" />
    <path d="M -168 6 L -165 11 L -159 11 L -164 14 L -162 19 L -168 16 L -173 19 L -171 14 L -176 11 L -170 11 Z" fill="#FF80BF" />
  </g>

  <!-- ==================== COLUMN 1: LANGUAGES & FRONTEND (Left) ==================== -->

  <!-- CARD 1: LANGUAGES -->
  <g transform="translate(30, 75)">
    <!-- Wobbly doodle box -->
    <path d="M 12 0 L 238 0 Q 252 0 250 14 L 248 110 Q 248 122 236 122 L 14 122 Q 0 122 2 110 L 0 14 Q 0 0 12 0 Z" class="doodle-card" />
    <!-- Category Title -->
    <text x="16" y="24" fill="#FF66B2" font-size="13" font-weight="700">💻 LANGUAGES</text>
    <path d="M 16 28 Q 65 30 115 28" stroke="#D946EF" stroke-width="1.2" fill="none" />

    <!-- Badges Grid (2 cols x 3 rows) -->
    <!-- Python -->
    <g transform="translate(14, 38)">
      <rect width="105" height="24" class="badge-pill" />
      <!-- Doodled Python Icon (Dual Snake Loops) -->
      <path d="M 12 8 Q 16 5 20 8 Q 22 10 20 14 L 16 14 Q 14 14 14 16 L 14 18" stroke="#FF2A85" stroke-width="1.4" fill="none" stroke-linecap="round" />
      <circle cx="15" cy="9" r="0.9" fill="#FFF" />
      <text x="28" y="16" fill="#FCE7F3" font-size="11" font-weight="600">Python</text>
    </g>

    <!-- C++ -->
    <g transform="translate(128, 38)">
      <rect width="105" height="24" class="badge-pill" />
      <!-- C++ Doodle (C with ++ scribble) -->
      <path d="M 18 8 Q 12 8 12 12 Q 12 16 18 16" stroke="#FF66B2" stroke-width="1.4" fill="none" stroke-linecap="round" />
      <path d="M 21 10 L 21 14 M 19 12 L 23 12 M 25 10 L 25 14 M 23 12 L 27 12" stroke="#E879F9" stroke-width="1.2" stroke-linecap="round" />
      <text x="32" y="16" fill="#FCE7F3" font-size="11" font-weight="600">C++</text>
    </g>

    <!-- JavaScript -->
    <g transform="translate(14, 66)">
      <rect width="105" height="24" class="badge-pill" />
      <!-- JS badge doodle -->
      <rect x="10" y="5" width="13" height="14" rx="2" stroke="#FF2A85" stroke-width="1.2" fill="none" />
      <path d="M 18 10 Q 18 16 14 16" stroke="#FF66B2" stroke-width="1.1" fill="none" stroke-linecap="round" />
      <text x="28" y="16" fill="#FCE7F3" font-size="11" font-weight="600">JavaScript</text>
    </g>

    <!-- TypeScript -->
    <g transform="translate(128, 66)">
      <rect width="105" height="24" class="badge-pill" />
      <rect x="10" y="5" width="13" height="14" rx="2" stroke="#FF66B2" stroke-width="1.2" fill="none" />
      <path d="M 13 8 L 21 8 M 17 8 L 17 16" stroke="#FF2A85" stroke-width="1.1" stroke-linecap="round" />
      <text x="28" y="16" fill="#FCE7F3" font-size="11" font-weight="600">TypeScript</text>
    </g>

    <!-- C -->
    <g transform="translate(14, 94)">
      <rect width="105" height="24" class="badge-pill" />
      <path d="M 20 8 Q 13 8 13 12 Q 13 16 20 16" stroke="#D946EF" stroke-width="1.4" fill="none" stroke-linecap="round" />
      <text x="28" y="16" fill="#FCE7F3" font-size="11" font-weight="600">C Lang</text>
    </g>

    <!-- SQL -->
    <g transform="translate(128, 94)">
      <rect width="105" height="24" class="badge-pill" />
      <!-- Cylinder doodle -->
      <ellipse cx="17" cy="8" rx="6" ry="2.5" stroke="#FF66B2" stroke-width="1.1" fill="none" />
      <path d="M 11 8 L 11 15 Q 17 18 23 15 L 23 8" stroke="#FF2A85" stroke-width="1.1" fill="none" />
      <text x="28" y="16" fill="#FCE7F3" font-size="11" font-weight="600">SQL</text>
    </g>
  </g>


  <!-- CARD 2: FRONTEND & CREATIVE TECH -->
  <g transform="translate(30, 212)">
    <path d="M 14 0 L 236 0 Q 250 0 252 14 L 248 116 Q 248 126 236 126 L 12 126 Q 0 126 2 114 L 0 12 Q 0 0 14 0 Z" class="doodle-card" />
    <text x="16" y="24" fill="#FF66B2" font-size="13" font-weight="700">🎨 FRONTEND &amp; DESIGN</text>
    <path d="M 16 28 Q 85 30 165 28" stroke="#D946EF" stroke-width="1.2" fill="none" />

    <!-- React -->
    <g transform="translate(14, 38)">
      <rect width="105" height="24" class="badge-pill" />
      <!-- Atom loop doodle -->
      <ellipse cx="17" cy="12" rx="6" ry="2.5" stroke="#FF2A85" stroke-width="1" transform="rotate(30 17 12)" fill="none" />
      <ellipse cx="17" cy="12" rx="6" ry="2.5" stroke="#FF66B2" stroke-width="1" transform="rotate(-30 17 12)" fill="none" />
      <circle cx="17" cy="12" r="1" fill="#FFF" />
      <text x="28" y="16" fill="#FCE7F3" font-size="11" font-weight="600">React</text>
    </g>

    <!-- Next.js -->
    <g transform="translate(128, 38)">
      <rect width="105" height="24" class="badge-pill" />
      <!-- Next N doodle -->
      <circle cx="17" cy="12" r="6" stroke="#FF66B2" stroke-width="1.1" fill="none" />
      <path d="M 14 8 L 14 16 M 14 9 L 19 16 M 19 8 L 19 13" stroke="#FFF" stroke-width="1" stroke-linecap="round" />
      <text x="28" y="16" fill="#FCE7F3" font-size="11" font-weight="600">Next.js</text>
    </g>

    <!-- Node.js -->
    <g transform="translate(14, 66)">
      <rect width="105" height="24" class="badge-pill" />
      <!-- Hexagon doodle -->
      <polygon points="17,6 23,9.5 23,14.5 17,18 11,14.5 11,9.5" stroke="#FF2A85" stroke-width="1.1" fill="none" />
      <text x="28" y="16" fill="#FCE7F3" font-size="11" font-weight="600">Node.js</text>
    </g>

    <!-- Figma -->
    <g transform="translate(128, 66)">
      <rect width="105" height="24" class="badge-pill" />
      <!-- Figma bubbles doodle -->
      <circle cx="14" cy="9" r="2.5" fill="#FF2A85" />
      <circle cx="19" cy="9" r="2.5" fill="#FF66B2" />
      <circle cx="14" cy="14" r="2.5" fill="#D946EF" />
      <circle cx="19" cy="14" r="2.5" fill="#FDA4AF" />
      <text x="28" y="16" fill="#FCE7F3" font-size="11" font-weight="600">Figma</text>
    </g>

    <!-- UX/UI & Prototyping -->
    <g transform="translate(14, 94)">
      <rect width="105" height="24" class="badge-pill" />
      <!-- Wireframe box doodle -->
      <rect x="11" y="7" width="12" height="10" rx="1.5" stroke="#E879F9" stroke-width="1.1" fill="none" />
      <line x1="11" y1="10" x2="23" y2="10" stroke="#E879F9" stroke-width="0.8" />
      <text x="28" y="16" fill="#FCE7F3" font-size="11" font-weight="600">UX / UI</text>
    </g>

    <!-- TailwindCSS / CSS3 -->
    <g transform="translate(128, 94)">
      <rect width="105" height="24" class="badge-pill" />
      <!-- Wind wave doodle -->
      <path d="M 12 14 Q 15 9 17 12 Q 19 9 22 10" stroke="#FF2A85" stroke-width="1.2" fill="none" stroke-linecap="round" />
      <text x="28" y="16" fill="#FCE7F3" font-size="11" font-weight="600">Tailwind</text>
    </g>
  </g>


  <!-- ==================== COLUMN 2: INTELLIGENCE & ROBOTICS (Middle) ==================== -->

  <!-- CARD 3: ML & COMPUTER VISION -->
  <g transform="translate(300, 75)">
    <path d="M 12 0 L 238 0 Q 250 0 252 14 L 248 110 Q 248 122 236 122 L 14 122 Q 0 122 2 110 L 0 14 Q 0 0 12 0 Z" class="doodle-card" />
    <text x="16" y="24" fill="#FF66B2" font-size="13" font-weight="700">🧠 ML &amp; COMPUTER VISION</text>
    <path d="M 16 28 Q 95 30 185 28" stroke="#D946EF" stroke-width="1.2" fill="none" />

    <!-- PyTorch -->
    <g transform="translate(14, 38)">
      <rect width="105" height="24" class="badge-pill" />
      <!-- Flame doodle -->
      <path d="M 17 6 Q 21 10 19 14 Q 17 17 14 15 Q 13 11 17 6 Z" stroke="#FF2A85" stroke-width="1.2" fill="none" />
      <circle cx="20" cy="8" r="0.9" fill="#FF66B2" />
      <text x="28" y="16" fill="#FCE7F3" font-size="11" font-weight="600">PyTorch</text>
    </g>

    <!-- OpenCV -->
    <g transform="translate(128, 38)">
      <rect width="105" height="24" class="badge-pill" />
      <!-- OpenCV 3 rings doodle -->
      <circle cx="17" cy="9" r="2.2" stroke="#FF2A85" stroke-width="1" fill="none" />
      <circle cx="13.5" cy="14" r="2.2" stroke="#FF66B2" stroke-width="1" fill="none" />
      <circle cx="20.5" cy="14" r="2.2" stroke="#D946EF" stroke-width="1" fill="none" />
      <text x="28" y="16" fill="#FCE7F3" font-size="11" font-weight="600">OpenCV</text>
    </g>

    <!-- TensorFlow -->
    <g transform="translate(14, 66)">
      <rect width="105" height="24" class="badge-pill" />
      <!-- 3D Cube / T doodle -->
      <path d="M 17 7 L 22 10 L 22 15 L 17 18 L 12 15 L 12 10 Z" stroke="#FF66B2" stroke-width="1.1" fill="none" />
      <line x1="17" y1="7" x2="17" y2="18" stroke="#FF2A85" stroke-width="1" />
      <text x="28" y="16" fill="#FCE7F3" font-size="11" font-weight="600">TensorFlow</text>
    </g>

    <!-- Image Processing -->
    <g transform="translate(128, 66)">
      <rect width="105" height="24" class="badge-pill" />
      <!-- Camera lens doodle -->
      <circle cx="17" cy="12" r="5" stroke="#E879F9" stroke-width="1.1" fill="none" />
      <circle cx="17" cy="12" r="2" fill="#FF2A85" />
      <text x="28" y="16" fill="#FCE7F3" font-size="11" font-weight="600">Vision Pipelines</text>
    </g>

    <!-- Scikit-Learn -->
    <g transform="translate(14, 94)">
      <rect width="105" height="24" class="badge-pill" />
      <!-- Scatter graph dots -->
      <circle cx="13" cy="14" r="1.5" fill="#FF2A85" />
      <circle cx="17" cy="10" r="1.5" fill="#FF66B2" />
      <circle cx="21" cy="8" r="1.5" fill="#D946EF" />
      <text x="28" y="16" fill="#FCE7F3" font-size="11" font-weight="600">Scikit-Learn</text>
    </g>

    <!-- Calibration Systems -->
    <g transform="translate(128, 94)">
      <rect width="105" height="24" class="badge-pill" />
      <!-- Calibration grid doodle -->
      <rect x="11" y="7" width="11" height="10" stroke="#FF66B2" stroke-width="1" fill="none" />
      <line x1="11" y1="12" x2="22" y2="12" stroke="#FF2A85" stroke-width="0.8" />
      <line x1="16.5" y1="7" x2="16.5" y2="17" stroke="#FF2A85" stroke-width="0.8" />
      <text x="28" y="16" fill="#FCE7F3" font-size="11" font-weight="600">Calibration</text>
    </g>
  </g>


  <!-- CARD 4: ROBOTICS & SPATIAL SYSTEMS -->
  <g transform="translate(300, 212)">
    <path d="M 12 0 L 238 0 Q 252 0 250 14 L 248 116 Q 248 126 236 126 L 14 126 Q 0 126 2 114 L 0 12 Q 0 0 12 0 Z" class="doodle-card" />
    <text x="16" y="24" fill="#FF66B2" font-size="13" font-weight="700">🤖 ROBOTICS &amp; SPATIAL</text>
    <path d="M 16 28 Q 95 30 175 28" stroke="#D946EF" stroke-width="1.2" fill="none" />

    <!-- ROS / ROS2 -->
    <g transform="translate(14, 38)">
      <rect width="105" height="24" class="badge-pill" />
      <!-- Robot nodes doodle -->
      <circle cx="14" cy="10" r="1.5" fill="#FF2A85" />
      <circle cx="20" cy="10" r="1.5" fill="#FF2A85" />
      <circle cx="17" cy="15" r="1.5" fill="#FF66B2" />
      <line x1="14" y1="10" x2="20" y2="10" stroke="#FFF" stroke-width="0.8" />
      <line x1="14" y1="10" x2="17" y2="15" stroke="#FFF" stroke-width="0.8" />
      <line x1="20" y1="10" x2="17" y2="15" stroke="#FFF" stroke-width="0.8" />
      <text x="28" y="16" fill="#FCE7F3" font-size="11" font-weight="600">ROS / ROS2</text>
    </g>

    <!-- Gazebo -->
    <g transform="translate(128, 38)">
      <rect width="105" height="24" class="badge-pill" />
      <!-- Gazebo roof doodle -->
      <path d="M 12 15 L 17 8 L 22 15 Z" stroke="#FF66B2" stroke-width="1.1" fill="none" />
      <line x1="14" y1="15" x2="14" y2="17" stroke="#FF2A85" stroke-width="1" />
      <line x1="20" y1="15" x2="20" y2="17" stroke="#FF2A85" stroke-width="1" />
      <text x="28" y="16" fill="#FCE7F3" font-size="11" font-weight="600">Gazebo</text>
    </g>

    <!-- SLAM -->
    <g transform="translate(14, 66)">
      <rect width="105" height="24" class="badge-pill" />
      <!-- Lidar radar sweep doodle -->
      <path d="M 12 16 A 6 6 0 0 1 22 16" stroke="#FF2A85" stroke-width="1.2" fill="none" />
      <path d="M 14 16 A 3 3 0 0 1 20 16" stroke="#FF66B2" stroke-width="1.2" fill="none" />
      <circle cx="17" cy="16" r="1" fill="#FFF" />
      <text x="28" y="16" fill="#FCE7F3" font-size="11" font-weight="600">SLAM</text>
    </g>

    <!-- GIS / Spatial (UrbanLens) -->
    <g transform="translate(128, 66)">
      <rect width="105" height="24" class="badge-pill" />
      <!-- Globe / Map pin doodle -->
      <circle cx="17" cy="12" r="5" stroke="#E879F9" stroke-width="1.1" fill="none" />
      <path d="M 12 12 Q 17 15 22 12" stroke="#FF2A85" stroke-width="0.8" fill="none" />
      <line x1="17" y1="7" x2="17" y2="17" stroke="#FF66B2" stroke-width="0.8" />
      <text x="28" y="16" fill="#FCE7F3" font-size="11" font-weight="600">GIS / Spatial</text>
    </g>

    <!-- Game Development -->
    <g transform="translate(14, 94)">
      <rect width="105" height="24" class="badge-pill" />
      <!-- Gamepad doodle -->
      <rect x="11" y="8" width="12" height="8" rx="2" stroke="#FF2A85" stroke-width="1.1" fill="none" />
      <path d="M 13 12 L 16 12 M 14.5 10.5 L 14.5 13.5" stroke="#FFF" stroke-width="0.9" />
      <circle cx="20" cy="11" r="0.8" fill="#FF66B2" />
      <circle cx="21.5" cy="13" r="0.8" fill="#FF80BF" />
      <text x="28" y="16" fill="#FCE7F3" font-size="11" font-weight="600">Game Dev</text>
    </g>

    <!-- Autonomous Systems -->
    <g transform="translate(128, 94)">
      <rect width="105" height="24" class="badge-pill" />
      <!-- Jet/Drone wings doodle -->
      <path d="M 12 14 L 17 8 L 22 14 L 17 12 Z" stroke="#FF66B2" stroke-width="1.1" fill="none" />
      <text x="28" y="16" fill="#FCE7F3" font-size="11" font-weight="600">Auto Systems</text>
    </g>
  </g>


  <!-- ==================== COLUMN 3: TOOLS, OS & NOTES (Right) ==================== -->

  <!-- CARD 5: DEV TOOLS & ENVIRONMENT -->
  <g transform="translate(570, 75)">
    <path d="M 12 0 L 238 0 Q 252 0 250 14 L 248 160 Q 248 172 236 172 L 14 172 Q 0 172 2 160 L 0 14 Q 0 0 12 0 Z" class="doodle-card" />
    <text x="16" y="24" fill="#FF66B2" font-size="13" font-weight="700">🛠️ TOOLS &amp; ENVIRONMENT</text>
    <path d="M 16 28 Q 95 30 180 28" stroke="#D946EF" stroke-width="1.2" fill="none" />

    <!-- MacOS -->
    <g transform="translate(14, 38)">
      <rect width="105" height="24" class="badge-pill" />
      <!-- Apple doodle -->
      <circle cx="17" cy="13" r="4" stroke="#FF2A85" stroke-width="1.1" fill="none" />
      <path d="M 17 8 Q 19 6 18 5" stroke="#FF66B2" stroke-width="1" fill="none" />
      <text x="28" y="16" fill="#FCE7F3" font-size="11" font-weight="600">MacOS</text>
    </g>

    <!-- Linux -->
    <g transform="translate(128, 38)">
      <rect width="105" height="24" class="badge-pill" />
      <!-- Terminal prompt doodle -->
      <path d="M 13 9 L 16 12 L 13 15" stroke="#FF66B2" stroke-width="1.2" fill="none" stroke-linecap="round" />
      <line x1="18" y1="15" x2="22" y2="15" stroke="#FFF" stroke-width="1.2" />
      <text x="28" y="16" fill="#FCE7F3" font-size="11" font-weight="600">Linux</text>
    </g>

    <!-- Git -->
    <g transform="translate(14, 66)">
      <rect width="105" height="24" class="badge-pill" />
      <!-- Git branch doodle -->
      <circle cx="14" cy="15" r="1.5" fill="#FF2A85" />
      <circle cx="14" cy="9" r="1.5" fill="#FF2A85" />
      <circle cx="20" cy="9" r="1.5" fill="#FF66B2" />
      <line x1="14" y1="9" x2="14" y2="15" stroke="#FFF" stroke-width="1" />
      <path d="M 14 13 Q 18 13 20 9" stroke="#FFF" stroke-width="1" fill="none" />
      <text x="28" y="16" fill="#FCE7F3" font-size="11" font-weight="600">Git</text>
    </g>

    <!-- GitHub -->
    <g transform="translate(128, 66)">
      <rect width="105" height="24" class="badge-pill" />
      <!-- Cat silhouette doodle -->
      <path d="M 13 14 Q 13 9 17 9 Q 21 9 21 14" stroke="#E879F9" stroke-width="1.2" fill="none" />
      <polygon points="14,10 13,7 16,9" fill="#FF2A85" />
      <polygon points="20,10 21,7 18,9" fill="#FF2A85" />
      <text x="28" y="16" fill="#FCE7F3" font-size="11" font-weight="600">GitHub</text>
    </g>

    <!-- VS Code -->
    <g transform="translate(14, 94)">
      <rect width="105" height="24" class="badge-pill" />
      <!-- Code ribbon doodle -->
      <path d="M 21 7 L 16 11 L 13 9 L 11 10 L 14 12 L 11 14 L 13 15 L 16 13 L 21 17 Z" stroke="#FF2A85" stroke-width="0.9" fill="none" />
      <text x="28" y="16" fill="#FCE7F3" font-size="11" font-weight="600">VS Code</text>
    </g>

    <!-- Antigravity -->
    <g transform="translate(128, 94)">
      <rect width="105" height="24" class="badge-pill" />
      <!-- Gravity vortex doodle -->
      <circle cx="17" cy="12" r="5" stroke="#FF66B2" stroke-width="1" stroke-dasharray="3,2" fill="none" />
      <circle cx="17" cy="12" r="1.5" fill="#FFF" />
      <text x="28" y="16" fill="#FCE7F3" font-size="11" font-weight="600">Antigravity</text>
    </g>

    <!-- Docker -->
    <g transform="translate(14, 122)">
      <rect width="105" height="24" class="badge-pill" />
      <!-- Whale container boxes doodle -->
      <rect x="12" y="10" width="3" height="2.5" fill="#FF2A85" />
      <rect x="16" y="10" width="3" height="2.5" fill="#FF66B2" />
      <rect x="14" y="7" width="3" height="2.5" fill="#D946EF" />
      <path d="M 11 13 Q 16 16 22 13" stroke="#FFF" stroke-width="0.9" fill="none" />
      <text x="28" y="16" fill="#FCE7F3" font-size="11" font-weight="600">Docker</text>
    </g>

    <!-- Postman / APIs -->
    <g transform="translate(128, 122)">
      <rect width="105" height="24" class="badge-pill" />
      <!-- Rocket doodle -->
      <path d="M 17 7 Q 21 10 20 14 L 14 14 Q 13 10 17 7 Z" stroke="#E879F9" stroke-width="1" fill="none" />
      <text x="28" y="16" fill="#FCE7F3" font-size="11" font-weight="600">Postman</text>
    </g>
  </g>

  <!-- DOODLE STICKY NOTE (Bottom Right) -->
  <g transform="translate(570, 260)">
    <!-- Sticky note paper with fold -->
    <path d="M 6 0 L 240 0 Q 248 0 248 8 L 248 68 L 228 88 L 8 88 Q 0 88 0 80 L 0 6 Q 0 0 6 0 Z" fill="#200B22" stroke="#FF66B2" stroke-width="1.3" />
    <polygon points="248,68 228,68 228,88" fill="#3D1242" stroke="#FF66B2" stroke-width="1" />
    <!-- Pin doodle on top -->
    <circle cx="124" cy="6" r="3" fill="#FF2A85" stroke="#FFF" stroke-width="0.8" />

    <!-- Cute doodle note text -->
    <text class="handwritten" x="18" y="28" fill="#FDA4AF" font-size="16" font-weight="700">✧ Dev Formula ✧</text>
    <text class="handwritten" x="18" y="50" fill="#FCE7F3" font-size="15">Code ➔ Debug ➔ Coffee ➔ Build</text>
    <text class="handwritten" x="18" y="72" fill="#FF80BF" font-size="14">✦ Turning ideas into reality ♡</text>
  </g>

  <!-- ==================== CUTE DOODLE SKETCHES & ARROWS ==================== -->

  <!-- Hand-drawn arrow pointing to robotics -->
  <g transform="translate(260, 360)">
    <path d="M 30 10 Q 55 -5 70 15" stroke="#FF66B2" stroke-width="1.6" fill="none" stroke-linecap="round" />
    <path d="M 62 10 L 70 15 L 68 6" stroke="#FF66B2" stroke-width="1.6" stroke-linecap="round" stroke-linejoin="round" fill="none" />
    <text class="handwritten" x="0" y="32" fill="#FF80BF" font-size="16">Autonomous magic!</text>
  </g>

  <!-- Hand-drawn doodle coffee cup -->
  <g transform="translate(50, 360)">
    <rect x="0" y="8" width="18" height="14" rx="2" stroke="#FF66B2" stroke-width="1.3" fill="none" />
    <path d="M 18 11 Q 23 11 23 15 Q 23 19 18 19" stroke="#FF66B2" stroke-width="1.2" fill="none" />
    <!-- Steam squiggles -->
    <path d="M 4 5 Q 6 2 4 0" stroke="#FCE7F3" stroke-width="1" fill="none" stroke-linecap="round" />
    <path d="M 9 5 Q 11 2 9 0" stroke="#FCE7F3" stroke-width="1" fill="none" stroke-linecap="round" />
    <path d="M 14 5 Q 16 2 14 0" stroke="#FCE7F3" stroke-width="1" fill="none" stroke-linecap="round" />
    <text class="handwritten" x="30" y="22" fill="#FDA4AF" font-size="16">Powered by caffeine ☕</text>
  </g>

  <!-- Floating Sparkle Stars -->
  <g class="floating-sparkle" transform="translate(530, 420)">
    <path d="M 0,-6 L 1.8,-1.8 L 6,0 L 1.8,1.8 L 0,6 L -1.8,1.8 L -6,0 L -1.8,-1.8 Z" fill="#FF80BF" />
  </g>
  <g class="floating-sparkle" transform="translate(790, 410)">
    <path d="M 0,-5 L 1.5,-1.5 L 5,0 L 1.5,1.5 L 0,5 L -1.5,1.5 L -5,0 L -1.5,-1.5 Z" fill="#E879F9" />
  </g>
  <g class="floating-sparkle" transform="translate(70, 50)">
    <path d="M 0,-4 L 1.2,-1.2 L 4,0 L 1.2,1.2 L 0,4 L -1.2,1.2 L -4,0 L -1.2,-1.2 Z" fill="#FF2A85" />
  </g>

</svg>